<svg width="80" height="80" viewBox="0 0 80 80" fill="none" xmlns="http://www.w3.org/2000/svg">
<path d="M61.0967 59.4925H2.08447V62.8736C2.08447 67.9828 6.22619 72.1244 11.3353 72.1244H68.6646C73.7735 72.1244 77.9154 67.9826 77.9154 62.8736V59.4925" fill="#F4B2B0"/>
<path d="M68.6648 74.2086H11.3352C5.085 74.2086 0 69.1236 0 62.8734V59.4922C0 58.3411 0.933281 57.4078 2.08438 57.4078H61.0966C62.2477 57.4078 63.1809 58.3412 63.1809 59.4922C63.1809 60.6431 62.2475 61.5765 61.0966 61.5765H4.16891V62.8732C4.16891 66.8247 7.38375 70.0395 11.3352 70.0395H68.6645C72.6163 70.0395 75.8311 66.8247 75.8311 62.8732V59.4922C75.8311 58.3411 76.7645 57.4078 77.9155 57.4078C79.0666 57.4078 79.9998 58.3412 79.9998 59.4922V62.8732C80 69.1237 74.915 74.2086 68.6648 74.2086Z" fill="#B3404A"/>
<path d="M68.6648 74.2086H11.3352C5.085 74.2086 0 69.1236 0 62.8734V17.1265C0 10.8764 5.085 5.79138 11.3352 5.79138H68.6645C74.9147 5.79138 79.9997 10.8764 79.9997 17.1265V62.8736C79.9998 69.1237 74.915 74.2086 68.6648 74.2086ZM11.3352 9.96029C7.38375 9.96029 4.16891 13.1751 4.16891 17.1265V62.8736C4.16891 66.825 7.38375 70.0398 11.3352 70.0398H68.6645C72.6159 70.0398 75.8308 66.825 75.8308 62.8736V17.1265C75.8308 13.1751 72.6159 9.96029 68.6645 9.96029H11.3352Z" fill="#B3404A"/>
<path d="M34.2988 38.9537V27.7676C34.2988 26.8822 35.254 26.3258 36.0241 26.7625L45.8876 32.3555C46.6682 32.7981 46.6682 33.923 45.8876 34.3655L36.0241 39.9586C35.2538 40.3955 34.2988 39.839 34.2988 38.9537Z" fill="#EBAFAE"/>
<path d="M35.4556 42.1952C33.6684 42.1952 32.2144 40.7411 32.2144 38.9536V27.7675C32.2144 25.9802 33.6684 24.5259 35.4556 24.5259C36.0117 24.5259 36.5639 24.6722 37.0523 24.9492L46.9158 30.542C47.9284 31.1166 48.5575 32.1964 48.5575 33.3605C48.5575 34.5244 47.9284 35.6044 46.9159 36.1786L37.0523 41.7717C36.5639 42.0488 36.0117 42.1952 35.4556 42.1952ZM36.3829 29.3625V37.3589L43.434 33.3605L36.3829 29.3625Z" fill="#B1404A"/>
<path d="M40.0001 51.2557C30.3454 51.2557 22.4907 43.4008 22.4907 33.7463C22.4907 32.5952 23.424 31.6619 24.5751 31.6619C25.7262 31.6619 26.6595 32.5953 26.6595 33.7463C26.6595 41.1022 32.6438 47.0868 39.9999 47.0868C47.356 47.0868 53.3404 41.1024 53.3404 33.7463C53.3404 26.3902 47.356 20.4058 39.9999 20.4058C38.8487 20.4058 37.9156 19.4724 37.9156 18.3214C37.9156 17.1705 38.8488 16.2371 39.9999 16.2371C49.6545 16.2371 57.5093 24.0919 57.5093 33.7464C57.5093 43.401 49.6546 51.2557 40.0001 51.2557Z" fill="#B1404A"/>
<path d="M18.1479 65.6386C16.9966 65.6386 16.0635 64.7051 16.0635 63.5542V55.2859C16.0635 54.1348 16.9966 53.2015 18.1479 53.2015C19.2991 53.2015 20.2322 54.135 20.2322 55.2859V63.5542C20.2322 64.7054 19.2991 65.6386 18.1479 65.6386Z" fill="#B3404A"/>
</svg>
