<svg width="90" height="90" viewBox="0 0 90 90" fill="none" xmlns="http://www.w3.org/2000/svg">
<g clip-path="url(#clip0_70_92)">
<path d="M75.123 57.4775L87.6004 45L75.123 32.5225V57.4775Z" fill="#F4B2B0"/>
<path d="M57.4777 14.8771L45.0003 2.39978L32.5229 14.8771H57.4777Z" fill="#F4B2B0"/>
<path d="M32.5229 75.1229L45.0003 87.6002L57.4777 75.1229H32.5229Z" fill="#F4B2B0"/>
<path d="M14.8774 32.5225L2.3999 45L14.8774 57.4775V32.5225Z" fill="#F4B2B0"/>
<path d="M59.8669 74.9248C59.866 74.9124 59.8662 74.9001 59.865 74.8876C59.8546 74.7812 59.8356 74.6775 59.8117 74.5756C59.8066 74.5538 59.8006 74.5321 59.7948 74.5103C59.768 74.4086 59.7363 74.3087 59.6969 74.2127C59.6957 74.2099 59.6952 74.2073 59.6941 74.2043C59.6936 74.2031 59.6932 74.2022 59.6927 74.201C59.6838 74.1799 59.6736 74.1597 59.6642 74.1391C59.6444 74.0946 59.6236 74.051 59.6013 74.0083C59.5894 73.9855 59.5765 73.9631 59.5639 73.9408C59.5401 73.8986 59.515 73.8575 59.4888 73.8171C59.477 73.7991 59.4656 73.7809 59.4533 73.7627C59.3733 73.6466 59.2838 73.5386 59.1863 73.4393C59.1738 73.4268 59.1612 73.4145 59.1483 73.4024C59.1102 73.3651 59.0708 73.3294 59.0302 73.2952C59.0146 73.282 58.9991 73.2685 58.9829 73.2556C58.9374 73.2189 58.8905 73.1839 58.8425 73.1505C58.8326 73.1438 58.8233 73.1361 58.8135 73.1296C58.7581 73.0923 58.7004 73.058 58.6419 73.0255C58.6196 73.0132 58.5967 73.002 58.5742 72.9902C58.535 72.97 58.4955 72.9508 58.4552 72.9329C58.4294 72.9213 58.4035 72.9099 58.3772 72.8993C58.3318 72.8809 58.2858 72.8643 58.2394 72.8489C58.2191 72.8422 58.1993 72.8343 58.1789 72.8279C58.1158 72.8084 58.0513 72.7924 57.9862 72.7782C57.962 72.7731 57.9375 72.7689 57.9133 72.7643C57.8644 72.7552 57.8148 72.7478 57.7649 72.7418C57.7419 72.739 57.7189 72.736 57.6955 72.7339C57.6232 72.7274 57.5505 72.7228 57.4772 72.7228H32.5227H17.2767V57.4771V32.5229V32.5227C17.2767 32.4491 17.2721 32.3763 17.2656 32.304C17.2635 32.2812 17.2605 32.2587 17.2579 32.2358C17.2519 32.1854 17.2442 32.1353 17.2349 32.0855C17.2305 32.0618 17.2264 32.0381 17.2215 32.0145C17.2071 31.9483 17.1907 31.8829 17.1711 31.8185C17.1656 31.8006 17.1586 31.783 17.1526 31.7651C17.1366 31.7166 17.119 31.6686 17.1 31.6213C17.09 31.5962 17.079 31.5714 17.0679 31.5466C17.0492 31.5046 17.0292 31.4633 17.0081 31.4225C16.9974 31.4014 16.9868 31.38 16.9752 31.3594C16.9424 31.2998 16.9074 31.2416 16.8694 31.185C16.8647 31.1778 16.859 31.1711 16.8543 31.1639C16.819 31.1128 16.7819 31.0632 16.7427 31.0147C16.7311 31.0003 16.7191 30.9866 16.7073 30.9725C16.6711 30.9296 16.6335 30.8879 16.5941 30.8479C16.5836 30.8371 16.5732 30.8261 16.5625 30.8152C16.462 30.7159 16.3524 30.6251 16.2347 30.5445C16.2194 30.5339 16.2037 30.5241 16.1881 30.5141C16.1448 30.4858 16.1006 30.4589 16.0552 30.4334C16.0353 30.4221 16.0153 30.4109 15.9953 30.4003C15.9482 30.3755 15.9 30.3525 15.8511 30.3307C15.8346 30.3233 15.8184 30.3151 15.8019 30.3082C15.7998 30.3075 15.798 30.3063 15.7959 30.3056C15.7912 30.3036 15.7861 30.3028 15.7813 30.3008C15.6878 30.2627 15.591 30.2319 15.492 30.2057C15.469 30.1998 15.4461 30.1934 15.4231 30.188C15.3218 30.1644 15.2192 30.1454 15.1134 30.1352C15.0997 30.1338 15.0863 30.1344 15.0728 30.1331C15.0082 30.128 14.9434 30.1233 14.8776 30.1233C14.8515 30.1233 14.8263 30.1265 14.8003 30.1272C14.7706 30.128 14.7412 30.1296 14.7115 30.1317C14.6145 30.1382 14.519 30.1495 14.4257 30.1672C14.4192 30.1685 14.4125 30.169 14.4058 30.1704C14.3014 30.191 14.2007 30.2203 14.1016 30.2541C14.0805 30.2613 14.0596 30.2692 14.0386 30.2771C13.9485 30.3108 13.8604 30.3488 13.7753 30.3928C13.7656 30.3979 13.7556 30.4019 13.746 30.407C13.6546 30.456 13.5677 30.5121 13.4839 30.5721C13.4623 30.5872 13.4413 30.6032 13.4206 30.6193C13.3396 30.6816 13.2613 30.747 13.1887 30.819C13.1861 30.8217 13.1829 30.8236 13.1803 30.8262L0.702817 43.3032C-0.234272 44.2403 -0.234272 45.7597 0.702817 46.6972L12.4772 58.4715V75.1231C12.4772 76.4483 13.5517 77.5229 14.8769 77.5229H31.5287L43.3031 89.2974C43.7532 89.7474 44.3635 90.0004 44.9999 90.0004C45.6362 90.0004 46.2465 89.7474 46.6967 89.2974L59.1738 76.8199C59.1747 76.8191 59.1757 76.8175 59.1766 76.8162C59.2508 76.7419 59.3181 76.661 59.3823 76.5772C59.3972 76.5575 59.412 76.538 59.4262 76.5181C59.4872 76.4332 59.544 76.3448 59.5938 76.2522C59.5973 76.2451 59.6003 76.2378 59.6038 76.2309C59.6496 76.1434 59.6887 76.0521 59.7235 75.9588C59.7307 75.9393 59.7381 75.9205 59.7446 75.901C59.7789 75.8009 59.8084 75.699 59.8293 75.5935C59.8302 75.5888 59.8305 75.5838 59.8314 75.5793C59.8499 75.484 59.8609 75.3863 59.8676 75.2875C59.8696 75.2587 59.871 75.2302 59.872 75.2013C59.8729 75.175 59.8761 75.1493 59.8761 75.1226C59.8768 75.0561 59.8722 74.9904 59.8669 74.9248ZM5.79327 45L12.4772 38.3161V51.6836L5.79327 45ZM44.9999 84.2063L38.316 77.5224H51.6836L44.9999 84.2063Z" fill="#B3404A"/>
<path d="M89.297 43.3032L77.5226 31.5287V14.8771C77.5226 13.5519 76.4481 12.4773 75.1229 12.4773H58.4711L46.6966 0.702949C46.2464 0.252949 45.6363 0 44.9997 0C44.3634 0 43.7531 0.252949 43.3029 0.702949L31.5286 12.4775H14.8768C13.5516 12.4775 12.4771 13.552 12.4771 14.8772C12.4771 16.2025 13.5516 17.277 14.8768 17.277H72.7231V32.5227V57.477V57.4771C72.7231 57.5508 72.7277 57.6236 72.7342 57.6958C72.7363 57.7187 72.7393 57.7412 72.7419 57.764C72.7479 57.8145 72.7556 57.8645 72.7649 57.9143C72.7693 57.938 72.7734 57.9618 72.7783 57.9853C72.7927 58.0516 72.809 58.117 72.8287 58.1813C72.8342 58.1992 72.8412 58.2168 72.8472 58.2347C72.8632 58.2833 72.8808 58.3313 72.8997 58.3785C72.9098 58.4037 72.9208 58.4285 72.9319 58.4532C72.9506 58.4953 72.9706 58.5366 72.9917 58.5773C73.0024 58.5984 73.0129 58.6199 73.0246 58.6404C73.0574 58.7 73.0924 58.7582 73.1304 58.8148C73.1351 58.822 73.1407 58.8287 73.1455 58.8359C73.1808 58.8871 73.2179 58.9366 73.2571 58.9852C73.2687 58.9996 73.2807 59.0133 73.2924 59.0273C73.3287 59.0702 73.3664 59.1119 73.4056 59.152C73.4162 59.1627 73.4266 59.1738 73.4373 59.1847C73.5378 59.284 73.6473 59.3747 73.7651 59.4554C73.7804 59.4659 73.7961 59.4758 73.8117 59.4858C73.8549 59.5141 73.8992 59.541 73.9446 59.5665C73.9645 59.5777 73.9845 59.589 74.0045 59.5995C74.0516 59.6243 74.0998 59.6473 74.1487 59.6691C74.1652 59.6765 74.1814 59.6848 74.1979 59.6916C74.2 59.6923 74.2018 59.6936 74.2039 59.6943C74.223 59.7022 74.2427 59.7076 74.2619 59.7148C74.315 59.7352 74.3677 59.7554 74.4224 59.7721C74.45 59.7806 74.4781 59.7864 74.5059 59.7934C74.5537 59.8061 74.601 59.8196 74.6498 59.8291C74.6961 59.8384 74.7425 59.844 74.789 59.8502C74.82 59.8546 74.8504 59.8607 74.8819 59.8639C74.9618 59.8718 75.0416 59.8762 75.1213 59.8762C75.2014 59.8762 75.2816 59.8718 75.3612 59.8639C75.3962 59.8604 75.4303 59.8535 75.4649 59.8488C75.5075 59.8426 75.5504 59.8377 75.5925 59.8291C75.6404 59.8194 75.6868 59.8066 75.7333 59.7941C75.7618 59.7867 75.7906 59.7807 75.8189 59.772C75.8669 59.7574 75.9137 59.7396 75.9604 59.722C75.9872 59.7122 76.0139 59.7037 76.0404 59.6927C76.0837 59.6747 76.1252 59.6538 76.1668 59.6334C76.1958 59.6195 76.2254 59.6067 76.2537 59.5916C76.2904 59.5719 76.3252 59.5496 76.3607 59.528C76.3927 59.5088 76.4252 59.4907 76.4562 59.47C76.4871 59.4494 76.5161 59.426 76.546 59.404C76.5794 59.3793 76.6135 59.3561 76.6456 59.3297C76.6745 59.306 76.701 59.2796 76.7286 59.2546C76.7587 59.2276 76.7896 59.2021 76.8184 59.1736L89.2956 46.6965C90.2341 45.7601 90.2341 44.2403 89.297 43.3032ZM38.3158 12.4775L44.9997 5.7934L51.6837 12.4773H38.3158V12.4775ZM77.5224 51.6837V38.3163L84.2063 45.0002L77.5224 51.6837Z" fill="#B3404A"/>
<path d="M44.9997 35.1141C40.6331 35.1141 37.0806 31.5615 37.0806 27.1949C37.0806 25.8697 38.1551 24.7952 39.4803 24.7952C40.8055 24.7952 41.8801 25.8697 41.8801 27.1949C41.8801 28.9151 43.2797 30.3145 44.9997 30.3145C46.7199 30.3145 48.1193 28.915 48.1193 27.1949C48.1193 25.4749 46.7197 24.0754 44.9997 24.0754C43.6745 24.0754 42.5999 23.0008 42.5999 21.6756C42.5999 20.3504 43.6745 19.2758 44.9997 19.2758C49.3663 19.2758 52.9188 22.8284 52.9188 27.1949C52.9188 31.5615 49.3663 35.1141 44.9997 35.1141Z" fill="#B3404A"/>
<path d="M62.801 45.4322H27.1986C25.8734 45.4322 24.7988 44.3577 24.7988 43.0325C24.7988 41.7072 25.8734 40.6327 27.1986 40.6327H62.8008C64.126 40.6327 65.2006 41.7072 65.2006 43.0325C65.2006 44.3577 64.1262 45.4322 62.801 45.4322Z" fill="#B3404A"/>
<path d="M62.801 56.3509H27.1986C25.8734 56.3509 24.7988 55.2764 24.7988 53.9512C24.7988 52.6259 25.8734 51.5514 27.1986 51.5514H62.8008C64.126 51.5514 65.2006 52.6259 65.2006 53.9512C65.2006 55.2764 64.1262 56.3509 62.801 56.3509Z" fill="#B3404A"/>
<path d="M45.9922 67.2697H27.1991C25.8739 67.2697 24.7993 66.1952 24.7993 64.87C24.7993 63.5448 25.8739 62.4702 27.1991 62.4702H45.9924C47.3176 62.4702 48.3922 63.5448 48.3922 64.87C48.392 66.1952 47.3174 67.2697 45.9922 67.2697Z" fill="#B3404A"/>
</g>
<defs>
<clipPath id="clip0_70_92">
<rect width="90" height="90" fill="white"/>
</clipPath>
</defs>
</svg>
