<svg width="45" height="45" viewBox="0 0 45 45" fill="none" xmlns="http://www.w3.org/2000/svg">
<path d="M26.6624 40.5562C24.4499 40.5562 21.3187 39 18.8437 31.5562L17.4937 27.5062L13.4437 26.1562C6.01865 23.6812 4.4624 20.55 4.4624 18.3375C4.4624 16.1437 6.01865 12.9937 13.4437 10.5L29.3624 5.19373C33.3374 3.86248 36.6562 4.25623 38.6999 6.28123C40.7437 8.30623 41.1374 11.6437 39.8062 15.6187L34.4999 31.5375C32.0062 39 28.8749 40.5562 26.6624 40.5562ZM14.3249 13.1812C9.1124 14.925 7.25615 16.9875 7.25615 18.3375C7.25615 19.6875 9.1124 21.75 14.3249 23.475L19.0499 25.05C19.4624 25.1812 19.7999 25.5187 19.9312 25.9312L21.5062 30.6562C23.2312 35.8687 25.3124 37.725 26.6624 37.725C28.0124 37.725 30.0749 35.8687 31.8187 30.6562L37.1249 14.7375C38.0812 11.85 37.9124 9.48748 36.6937 8.26873C35.4749 7.04998 33.1124 6.89998 30.2437 7.85623L14.3249 13.1812Z" fill="black"/>
<path d="M18.9562 27C18.6 27 18.2438 26.8688 17.9625 26.5875C17.4188 26.0438 17.4188 25.1438 17.9625 24.6L24.6749 17.8688C25.2187 17.325 26.1187 17.325 26.6624 17.8688C27.2062 18.4125 27.2062 19.3125 26.6624 19.8563L19.9499 26.5875C19.6874 26.8688 19.3124 27 18.9562 27Z" fill="black"/>
</svg>
